<?xml version="1.0" encoding="iso-8859-1"?>
<!-- Generator: Adobe Illustrator 19.0.0, SVG Export Plug-In . SVG Version: 6.00 Build 0)  -->
<svg version="1.1" id="Capa_1" xmlns="http://www.w3.org/2000/svg" xmlns:xlink="http://www.w3.org/1999/xlink" x="0px" y="0px"
	 viewBox="0 0 512 512" style="enable-background:new 0 0 512 512;" xml:space="preserve">
<g>
	<path style="fill:#EAEAEA;" d="M454.906,497.567L454.906,497.567c11.106-11.106,11.106-29.281,0-40.387l-58.865-58.865
		c-11.106-11.106-29.281-11.106-40.387,0l0,0c-11.106,11.106-11.106,29.281,0,40.387l58.865,58.865
		C425.625,508.673,443.799,508.673,454.906,497.567z"/>
	<path style="fill:#EAEAEA;" d="M57.095,497.567L57.095,497.567c-11.106-11.106-11.106-29.281,0-40.387l58.865-58.865
		c11.106-11.106,29.281-11.106,40.387,0l0,0c11.106,11.106,11.106,29.281,0,40.387l-58.865,58.865
		C86.375,508.673,68.202,508.673,57.095,497.567z"/>
</g>
<g>
	<path style="fill:#D8D7DA;" d="M102.937,492.112l53.41-53.41c11.106-11.106,11.106-29.281,0-40.387l0,0
		c-11.106-11.106-29.281-11.106-40.387,0l-51.77,51.77C72.899,463.979,85.312,478.821,102.937,492.112z"/>
	<path style="fill:#D8D7DA;" d="M409.064,492.112l-53.41-53.41c-11.106-11.106-11.106-29.281,0-40.387l0,0
		c11.106-11.106,29.281-11.106,40.387,0l51.77,51.77C439.102,463.979,426.689,478.821,409.064,492.112z"/>
</g>
<path style="fill:#EAEAEA;" d="M438.042,95.254L438.042,95.254c8.259,8.259,21.773,8.259,30.032,0l37.43-37.43
	c8.259-8.259,8.259-21.773,0-30.032l0,0c-8.259-8.259-21.773-8.259-30.031,0l-37.43,37.43
	C429.783,73.481,429.783,86.995,438.042,95.254z"/>
<path style="fill:#F46262;" d="M482.848,54.925c38.942,38.942,34.098,83.98,13.207,120.703
	c-11.57,20.339-39.452,23.898-55.998,7.352l-85.266-85.266c-16.546-16.546-12.986-44.428,7.352-55.998
	C398.868,20.827,443.906,15.983,482.848,54.925z"/>
<path style="fill:#D65B5B;" d="M440.059,182.985c15.861,15.861,42.128,13.236,54.469-4.923
	c-31.124-69.58-74.042-87.633-89.248-108.13c-11.557-15.578-8.743-31.379-3.504-42.836c-13.791,2.315-27.189,7.547-39.631,14.624
	c-20.339,11.57-23.898,39.452-7.352,55.998L440.059,182.985z"/>
<path style="fill:#EAEAEA;" d="M73.959,95.254L73.959,95.254c-8.259,8.259-21.773,8.259-30.032,0L6.498,57.824
	c-8.259-8.259-8.259-21.773,0-30.032l0,0c8.259-8.259,21.773-8.259,30.031,0l37.43,37.43C82.217,73.481,82.217,86.995,73.959,95.254
	z"/>
<path style="fill:#F46262;" d="M29.152,54.925c-38.942,38.942-34.098,83.98-13.207,120.703c11.57,20.339,39.452,23.898,55.998,7.352
	l85.266-85.266c16.546-16.546,12.986-44.428-7.352-55.998C113.133,20.827,68.094,15.983,29.152,54.925z"/>
<path style="fill:#D65B5B;" d="M71.94,182.98l85.266-85.266c16.546-16.546,12.986-44.428-7.352-55.998
	c-0.837-0.476-1.678-0.94-2.523-1.399c-59.064,34.417-82.879,98.152-107.105,86.304c-18.469-9.032-23.308-34.152-23.52-57.06
	c-25.058,35.271-19.081,73.865-0.763,106.065C27.512,195.967,55.394,199.527,71.94,182.98z"/>
<rect x="235.706" y="14.841" style="fill:#D8D7DA;" width="40.579" height="83.345"/>
<circle style="fill:#FF737D;" cx="256" cy="287.913" r="217.986"/>
<circle style="fill:#D7F3FF;" cx="256" cy="287.913" r="157.113"/>
<path style="fill:#92D8FF;" d="M155.703,287.912c0-77.071,55.496-141.174,128.705-154.545c-9.215-1.683-18.707-2.568-28.407-2.568
	c-86.771,0-157.113,70.342-157.113,157.113S169.229,445.024,256,445.024c9.7,0,19.193-0.885,28.407-2.568
	C211.199,429.085,155.703,364.982,155.703,287.912z"/>
<path style="fill:#EAEAEA;" d="M293.144,45.445h-74.286c-10.82,0-19.672-8.852-19.672-19.672l0,0
	c0-10.82,8.852-19.672,19.672-19.672h74.286c10.82,0,19.672,8.852,19.672,19.672l0,0C312.816,36.593,303.964,45.445,293.144,45.445z
	"/>
<g>
	<path style="fill:#E8C73D;" d="M236.328,285.193v-74.286c0-10.82,8.852-19.672,19.672-19.672l0,0
		c10.82,0,19.672,8.852,19.672,19.672v74.286c0,10.82-8.852,19.672-19.672,19.672l0,0
		C245.18,304.865,236.328,296.013,236.328,285.193z"/>
	<path style="fill:#E8C73D;" d="M301.485,377.03l-47.857-56.817c-6.97-8.275-5.903-20.749,2.373-27.719l0,0
		c8.275-6.97,20.749-5.903,27.719,2.373l47.857,56.817c6.97,8.275,5.903,20.749-2.373,27.719l0,0
		C320.929,386.373,308.455,385.306,301.485,377.03z"/>
</g>
<circle style="fill:#F2DA77;" cx="256" cy="287.913" r="39.863"/>
<g>
</g>
<g>
</g>
<g>
</g>
<g>
</g>
<g>
</g>
<g>
</g>
<g>
</g>
<g>
</g>
<g>
</g>
<g>
</g>
<g>
</g>
<g>
</g>
<g>
</g>
<g>
</g>
<g>
</g>
</svg>
