<svg id="visual" viewBox="0 0 1900 1024" width="1900" height="1024" xmlns="http://www.w3.org/2000/svg" xmlns:xlink="http://www.w3.org/1999/xlink" version="1.1"><rect x="0" y="0" width="1900" height="1024" fill="#001220"></rect><path d="M0 669L79.2 673.8C158.3 678.7 316.7 688.3 475 703.3C633.3 718.3 791.7 738.7 950 740.8C1108.3 743 1266.7 727 1425 728.7C1583.3 730.3 1741.7 749.7 1820.8 759.3L1900 769L1900 1025L1820.8 1025C1741.7 1025 1583.3 1025 1425 1025C1266.7 1025 1108.3 1025 950 1025C791.7 1025 633.3 1025 475 1025C316.7 1025 158.3 1025 79.2 1025L0 1025Z" fill="#fa7268"></path><path d="M0 786L79.2 774.7C158.3 763.3 316.7 740.7 475 741C633.3 741.3 791.7 764.7 950 779.3C1108.3 794 1266.7 800 1425 788.3C1583.3 776.7 1741.7 747.3 1820.8 732.7L1900 718L1900 1025L1820.8 1025C1741.7 1025 1583.3 1025 1425 1025C1266.7 1025 1108.3 1025 950 1025C791.7 1025 633.3 1025 475 1025C316.7 1025 158.3 1025 79.2 1025L0 1025Z" fill="#f16367"></path><path d="M0 821L79.2 813.8C158.3 806.7 316.7 792.3 475 790.7C633.3 789 791.7 800 950 803.2C1108.3 806.3 1266.7 801.7 1425 800.5C1583.3 799.3 1741.7 801.7 1820.8 802.8L1900 804L1900 1025L1820.8 1025C1741.7 1025 1583.3 1025 1425 1025C1266.7 1025 1108.3 1025 950 1025C791.7 1025 633.3 1025 475 1025C316.7 1025 158.3 1025 79.2 1025L0 1025Z" fill="#e85467"></path><path d="M0 840L79.2 845.7C158.3 851.3 316.7 862.7 475 861C633.3 859.3 791.7 844.7 950 847.7C1108.3 850.7 1266.7 871.3 1425 881.7C1583.3 892 1741.7 892 1820.8 892L1900 892L1900 1025L1820.8 1025C1741.7 1025 1583.3 1025 1425 1025C1266.7 1025 1108.3 1025 950 1025C791.7 1025 633.3 1025 475 1025C316.7 1025 158.3 1025 79.2 1025L0 1025Z" fill="#de4467"></path><path d="M0 876L79.2 884C158.3 892 316.7 908 475 916.2C633.3 924.3 791.7 924.7 950 926C1108.3 927.3 1266.7 929.7 1425 929.7C1583.3 929.7 1741.7 927.3 1820.8 926.2L1900 925L1900 1025L1820.8 1025C1741.7 1025 1583.3 1025 1425 1025C1266.7 1025 1108.3 1025 950 1025C791.7 1025 633.3 1025 475 1025C316.7 1025 158.3 1025 79.2 1025L0 1025Z" fill="#d23467"></path><path d="M0 971L79.2 970.3C158.3 969.7 316.7 968.3 475 965.2C633.3 962 791.7 957 950 956.7C1108.3 956.3 1266.7 960.7 1425 961.5C1583.3 962.3 1741.7 959.7 1820.8 958.3L1900 957L1900 1025L1820.8 1025C1741.7 1025 1583.3 1025 1425 1025C1266.7 1025 1108.3 1025 950 1025C791.7 1025 633.3 1025 475 1025C316.7 1025 158.3 1025 79.2 1025L0 1025Z" fill="#c62368"></path></svg>